<?xml version="1.0" encoding="UTF-8" standalone="no"?>
<!-- Created with Inkscape (http://www.inkscape.org/) -->

<svg
   xmlns:dc="http://purl.org/dc/elements/1.1/"
   xmlns:cc="http://creativecommons.org/ns#"
   xmlns:rdf="http://www.w3.org/1999/02/22-rdf-syntax-ns#"
   xmlns:svg="http://www.w3.org/2000/svg"
   xmlns="http://www.w3.org/2000/svg"
   xmlns:xlink="http://www.w3.org/1999/xlink"
   xmlns:sodipodi="http://sodipodi.sourceforge.net/DTD/sodipodi-0.dtd"
   xmlns:inkscape="http://www.inkscape.org/namespaces/inkscape"
   width="64px"
   height="64px"
   id="svg2985"
   version="1.1"
   inkscape:version="0.48.2 r9819"
   inkscape:export-filename="/Users/basti/Documents/Projekte/hopsi/CardScanner/res/drawable-ldpi/hopsi_icon.png"
   inkscape:export-xdpi="22.5"
   inkscape:export-ydpi="22.5"
   sodipodi:docname="Neues Dokument 2">
  <defs
     id="defs2987">
    <linearGradient
       inkscape:collect="always"
       id="linearGradient4019">
      <stop
         style="stop-color:#ffffff;stop-opacity:1;"
         offset="0"
         id="stop4021" />
      <stop
         style="stop-color:#ffffff;stop-opacity:0;"
         offset="1"
         id="stop4023" />
    </linearGradient>
    <linearGradient
       inkscape:collect="always"
       id="linearGradient3982">
      <stop
         style="stop-color:#000000;stop-opacity:1;"
         offset="0"
         id="stop3984" />
      <stop
         style="stop-color:#000000;stop-opacity:0;"
         offset="1"
         id="stop3986" />
    </linearGradient>
    <linearGradient
       inkscape:collect="always"
       id="linearGradient3970">
      <stop
         style="stop-color:#000000;stop-opacity:1;"
         offset="0"
         id="stop3972" />
      <stop
         style="stop-color:#000000;stop-opacity:0;"
         offset="1"
         id="stop3974" />
    </linearGradient>
    <linearGradient
       inkscape:collect="always"
       xlink:href="#linearGradient3970"
       id="linearGradient3976"
       x1="26"
       y1="27"
       x2="21"
       y2="16"
       gradientUnits="userSpaceOnUse" />
    <linearGradient
       inkscape:collect="always"
       xlink:href="#linearGradient3982"
       id="linearGradient3988"
       x1="31"
       y1="25"
       x2="29"
       y2="14"
       gradientUnits="userSpaceOnUse" />
    <linearGradient
       inkscape:collect="always"
       xlink:href="#linearGradient4019"
       id="linearGradient4025"
       x1="30"
       y1="49"
       x2="30"
       y2="42"
       gradientUnits="userSpaceOnUse" />
  </defs>
  <sodipodi:namedview
     id="base"
     pagecolor="#ffffff"
     bordercolor="#666666"
     borderopacity="1.0"
     inkscape:pageopacity="0.0"
     inkscape:pageshadow="2"
     inkscape:zoom="8.875"
     inkscape:cx="27.812298"
     inkscape:cy="35.005603"
     inkscape:current-layer="layer1"
     showgrid="true"
     inkscape:document-units="px"
     inkscape:grid-bbox="true"
     inkscape:window-width="837"
     inkscape:window-height="424"
     inkscape:window-x="241"
     inkscape:window-y="20"
     inkscape:window-maximized="0">
    <inkscape:grid
       type="xygrid"
       id="grid2993" />
  </sodipodi:namedview>
  <metadata
     id="metadata2990">
    <rdf:RDF>
      <cc:Work
         rdf:about="">
        <dc:format>image/svg+xml</dc:format>
        <dc:type
           rdf:resource="http://purl.org/dc/dcmitype/StillImage" />
        <dc:title></dc:title>
      </cc:Work>
    </rdf:RDF>
  </metadata>
  <g
     id="layer1"
     inkscape:label="Layer 1"
     inkscape:groupmode="layer">
    <path
       style="fill:none;stroke:#000000;stroke-width:1px;stroke-linecap:butt;stroke-linejoin:miter;stroke-opacity:1"
       d="M 39,50 C 39,50 26,44 15,42"
       id="path3168"
       inkscape:connector-curvature="0" />
    <rect
       style="fill:#ffffff;fill-opacity:1;stroke:none"
       id="rect3992"
       width="64"
       height="64"
       x="1.7763568e-15"
       y="1.7763568e-15"
       ry="6" />
    <path
       style="fill:#898989;fill-opacity:1;stroke:none"
       d="M 8,44 C 1.25,44 0.140625,47.9375 0,49.90625 L 0,51 0,58 c 0,3.324 2.676,6 6,6 l 52,0 c 3.324,0 6,-2.676 6,-6 l 0,-7 C 63,43 54,44 54,44 z"
       id="rect4004"
       inkscape:connector-curvature="0"
       sodipodi:nodetypes="sccssssccs" />
    <path
       sodipodi:nodetypes="sccssssccs"
       inkscape:connector-curvature="0"
       id="path4017"
       d="M 8,44 C 1.25,44 0.140625,47.9375 0,49.90625 L 0,51 0,58 c 0,3.324 2.676,6 6,6 l 52,0 c 3.324,0 6,-2.676 6,-6 l 0,-7 C 63,43 54,44 54,44 z"
       style="fill:url(#linearGradient4025);fill-opacity:1;stroke:none" />
    <path
       style="fill:none;stroke:#000000;stroke-width:1px;stroke-linecap:butt;stroke-linejoin:miter;stroke-opacity:1"
       d="M 48 6 C 35.943662 19.647887 26 29 26 29 C 26 29 37 40 39 50 C 39 50 45 36 55 33 C 55 33 47.549296 23.943662 48 6 z "
       id="path3164" />
    <path
       style="fill:none;stroke:#000000;stroke-width:1px;stroke-linecap:butt;stroke-linejoin:miter;stroke-opacity:1"
       d="M 15,42 C 15,42 14,30 4,22"
       id="path3170"
       inkscape:connector-curvature="0"
       sodipodi:nodetypes="cc" />
    <path
       style="fill:none;stroke:#000000;stroke-width:1px;stroke-linecap:butt;stroke-linejoin:miter;stroke-opacity:1"
       d="M 26,29 C 26,29 14,23 3,22 3,22 16.366197,11.492958 19,4 c 0,0 7,2 29,2"
       id="path3172"
       inkscape:connector-curvature="0"
       sodipodi:nodetypes="cccc" />
    <path
       style="fill:none;stroke:#000000;stroke-width:1px;stroke-linecap:butt;stroke-linejoin:miter;stroke-opacity:1"
       d="m 19,4 9,23"
       id="path3174"
       inkscape:connector-curvature="0" />
    <path
       id="path3184"
       d="M 50,6 C 37.943662,19.647887 28,29 28,29 c 0,0 11,11 13,21 0,0 6,-14 16,-17 0,0 -7.450704,-9.056338 -7,-27 z"
       style="fill:#0051ff;stroke:#000000;stroke-width:1px;stroke-linecap:butt;stroke-linejoin:miter;stroke-opacity:1;fill-opacity:1"
       inkscape:connector-curvature="0" />
    <path
       style="fill:#ff6500;fill-opacity:1;stroke:#000000;stroke-width:1px;stroke-linecap:butt;stroke-linejoin:miter;stroke-opacity:1"
       d="m 48,12 -6,7 3,7 -5,4 c -0.252394,-0.289784 -2.703714,-5.703714 -3,-6 l -5,5 c 0,0 7,7 9,16 l 3,-5 c 0,0 -2,-6 -3,-7 l 6,-5 c 0,0 3,5 4,6 0,0 1,-2 3,-2 0,0 -6,-10 -6,-20 z"
       id="path3176"
       inkscape:connector-curvature="0"
       sodipodi:nodetypes="ccccccccccccc" />
    <path
       style="fill:#0050ff;fill-opacity:1;stroke:#000000;stroke-width:1px;stroke-linecap:butt;stroke-linejoin:miter;stroke-opacity:1"
       d="m 2,23 c 0,0 12,10 11,20 l 24,8 C 37,51 37,41 25,30 25,30 7,22 2,23"
       id="path3956"
       inkscape:connector-curvature="0" />
    <path
       style="fill:#0050ff;stroke:#000000;stroke-width:1px;stroke-linecap:butt;stroke-linejoin:miter;stroke-opacity:1;fill-opacity:1"
       d="m 19,4 c 0,0 -1,6 -15,18 0,0 10,1 21,6 0,0 1,0 2,-1 L 19,5"
       id="path3958"
       inkscape:connector-curvature="0" />
    <path
       inkscape:connector-curvature="0"
       id="path3960"
       d="m 19,4 c 0,0 -1,6 -15,18 0,0 10,1 21,6 0,0 1,0 2,-1 L 19,5"
       style="fill:url(#linearGradient3976);stroke:#000000;stroke-width:1px;stroke-linecap:butt;stroke-linejoin:miter;stroke-opacity:1;fill-opacity:1" />
    <path
       style="fill:#0000ff;stroke:#000000;stroke-width:1px;stroke-linecap:butt;stroke-linejoin:miter;stroke-opacity:1;fill-opacity:1"
       d="M 20,4 28,26 47,6 C 47,6 27,5 20,5"
       id="path3978"
       inkscape:connector-curvature="0" />
    <path
       inkscape:connector-curvature="0"
       id="path3980"
       d="M 20,5 28,26 47,6 C 47,6 27,5 20,5"
       style="fill:url(#linearGradient3988);fill-opacity:1;stroke:#000000;stroke-width:1px;stroke-linecap:butt;stroke-linejoin:miter;stroke-opacity:1"
       sodipodi:nodetypes="cccc" />
  </g>
</svg>
